<svg xmlns="http://www.w3.org/2000/svg" xmlns:xlink="http://www.w3.org/1999/xlink" style="isolation:isolate" width="300" height="400" viewBox="0 0 300 400"><defs><clipPath id="_clipPath_BVjMtbR4dEXaBuo9qBU4zJA4ZPJHGfxW"><rect width="300" height="400"/></clipPath></defs><g clip-path="url(#_clipPath_BVjMtbR4dEXaBuo9qBU4zJA4ZPJHGfxW)"><clipPath id="_clipPath_UBQAdzuop4HX8nHiyTz6R71FUYdEnoXn"><rect width="300" height="400" x="0" y="0" fill="#FFF" transform="matrix(1,0,0,1,0,0)"/></clipPath><g clip-path="url(#_clipPath_UBQAdzuop4HX8nHiyTz6R71FUYdEnoXn)"><g id="Group"><rect width="300" height="400" x="0" y="0" fill="#1D1D1D" transform="matrix(1,0,0,1,0,0)"/><g id="ic_gamepad_48px"><path fill="none" d="M 101 151 L 199 151 L 199 249 L 101 249 L 101 151 Z"/><path fill="#272727" d="M 162.25 181.625 L 162.25 159.167 L 137.75 159.167 L 137.75 181.625 L 150 193.875 L 162.25 181.625 Z M 131.625 187.75 L 109.167 187.75 L 109.167 212.25 L 131.625 212.25 L 143.875 200 L 131.625 187.75 Z M 137.75 218.375 L 137.75 240.833 L 162.25 240.833 L 162.25 218.375 L 150 206.125 L 137.75 218.375 Z M 168.375 187.75 L 156.125 200 L 168.375 212.25 L 190.833 212.25 L 190.833 187.75 L 168.375 187.75 Z"/></g></g></g></g></svg>